<svg width="53" height="15" viewBox="0 0 53 15" fill="none" xmlns="http://www.w3.org/2000/svg">
<path d="M0 0H5.80474C10.5196 0 11.7061 1.70895 11.7061 3.40091V3.68969C11.7061 5.32389 10.682 7.18913 5.81247 7.18913H0V0ZM3.12266 5.28652H5.44146C8.16606 5.28652 8.46364 4.23329 8.46364 3.60476V3.547C8.46364 2.91846 8.16606 1.88562 5.44146 1.88562H3.12266V5.28652Z" fill="white"/>
<path d="M36.4903 6.03058H31.8179L31.1918 7.18913H28.0266L32.0729 0H36.2738L40.5482 7.18913H37.1279L36.4903 6.03058ZM34.1173 1.75991L32.7763 4.23329H35.4932L34.1173 1.75991Z" fill="white"/>
<path d="M40.9694 0H46.7742C51.4891 0 52.6755 1.70895 52.6755 3.40091V3.68969C52.6755 5.32389 51.6514 7.18913 46.7819 7.18913H40.9655V0H40.9694ZM44.0921 5.28652H46.4109C49.1355 5.28652 49.4331 4.23329 49.4331 3.60476V3.547C49.4331 2.91846 49.1355 1.88562 46.4109 1.88562H44.0921V5.28652Z" fill="white"/>
<path d="M3.12266 12.9581V15H0V7.80746H7.6366C10.6588 7.80746 11.5167 8.86069 11.5167 10.1857V10.5493C11.5167 11.8539 10.6279 12.9547 7.6366 12.9547H3.12266V12.9581ZM3.12266 11.1574H7.26172C7.97669 11.1574 8.29359 10.8958 8.29359 10.5017V10.4745C8.29359 10.06 8.31292 9.60814 7.26172 9.60814H3.12266V11.1574Z" fill="white"/>
<path d="M15.3235 14.9966H12.2124V7.8075H15.3235V14.9966Z" fill="white"/>
<path d="M15.6635 14.9966L19.4122 11.3035L15.7833 7.80408H19.7755L21.8547 9.92073L23.9416 7.80408H27.6478L24.1078 11.2729L27.814 14.9932H23.9764L21.6885 12.7407L19.4238 14.9932H15.6635V14.9966Z" fill="white"/>
<path d="M27.7754 0V1.75991H15.3196V2.75878H27.7715V4.40657H15.3196V5.39185H27.7561V7.18913H12.2394V0H27.7754Z" fill="white"/>
<path d="M43.5356 7.8075V9.5674H31.0759V10.5663H43.5278V12.2141H31.0759V13.1993H43.5124V14.9966H27.9996V7.8075H43.5356Z" fill="white"/>
<path d="M47.3384 7.8075V12.9377H52.6446V14.9966H44.2158V7.8075H47.3384Z" fill="white"/>
</svg>
